<svg xmlns="http://www.w3.org/2000/svg" viewBox="0 0 160 40">
  <path fill="#BC0024" d="M42.8,17.4c-1.2-2.5-3.6-4.2-6.5-4.2c-4.1,0-7.4,3.4-7.4,7.5c0,4.1,3.3,7.5,7.4,7.5c3.1,0,5.8-1.9,6.9-4.7
	l5.3,1.6c-2.3,5.3-7.5,9-13.6,9C25.5,34.1,18,26.6,18,17.4S25.5,0.7,34.9,0.7c5.2,0,9.8,2.7,12.5,6.8L42.8,17.4z M66.7,14.7
	c0-3.2-2.1-5.8-5.1-6.5l-0.6-2.2c5.6,0.5,9.8,5.2,9.8,11.4c0,7-5.7,12.7-12.7,12.7c-2.3,0-4.4-0.6-6.2-1.7l-0.9,5.2h-7.7V10.2h7.8
	l0.6,3.6c1.7-2.3,4.1-3.6,6.9-3.6C63.2,10.2,66.7,12.1,66.7,14.7z M58.7,24.8c3.1,0,5.6-2.5,5.6-5.6s-2.5-5.6-5.6-5.6
	s-5.6,2.5-5.6,5.6S55.6,24.8,58.7,24.8z M93.4,14.3c0-2.6-2.1-4-5.3-4c-2.1,0-4.1,0.6-5.7,1.7l-0.6-3.4c1.8-1.2,4.1-1.9,6.5-1.9
	c6.5,0,10.7,3.6,10.7,9.2v17.5h-7.8l-0.7-3.8c-1.8,2.5-4.5,4.4-7.6,4.4c-4.8,0-8.2-3.6-8.2-8.3c0-5.7,4.8-8.8,11.7-9.3l4.5-0.3v-1.1
	H93.4z M90.9,24.8l-3.3,0.3c-2.8,0.2-4.5,1.4-4.5,3.8c0,2.3,1.7,3.9,4.1,3.9c2.8,0,5.1-2.3,5.1-5.1V24.8z M127.8,14.7
	c0-3.2-2.1-5.8-5.1-6.5l-0.6-2.2c5.6,0.5,9.8,5.2,9.8,11.4c0,7-5.7,12.7-12.7,12.7c-2.3,0-4.4-0.6-6.2-1.7l-0.9,5.2h-7.7V10.2h7.8
	l0.6,3.6c1.7-2.3,4.1-3.6,6.9-3.6C124.3,10.2,127.8,12.1,127.8,14.7z M119.8,24.8c3.1,0,5.6-2.5,5.6-5.6s-2.5-5.6-5.6-5.6
	s-5.6,2.5-5.6,5.6S116.7,24.8,119.8,24.8z M154.5,14.3c0-2.6-2.1-4-5.3-4c-2.1,0-4.1,0.6-5.7,1.7l-0.6-3.4c1.8-1.2,4.1-1.9,6.5-1.9
	c6.5,0,10.7,3.6,10.7,9.2v17.5h-7.8l-0.7-3.8c-1.8,2.5-4.5,4.4-7.6,4.4c-4.8,0-8.2-3.6-8.2-8.3c0-5.7,4.8-8.8,11.7-9.3l4.5-0.3v-1.1
	H154.5z M152,24.8l-3.3,0.3c-2.8,0.2-4.5,1.4-4.5,3.8c0,2.3,1.7,3.9,4.1,3.9c2.8,0,5.1-2.3,5.1-5.1V24.8z"/>
</svg>